<svg width="22" height="22" viewBox="0 0 22 22" fill="none" xmlns="http://www.w3.org/2000/svg">
<path d="M4.81266 3.66699C3.17552 3.66699 1.8335 5.00902 1.8335 6.64616V15.3545C1.8335 16.9916 3.17552 18.3337 4.81266 18.3337H17.1877C18.8248 18.3337 20.1668 16.9916 20.1668 15.3545V6.64616C20.1668 5.00902 18.8248 3.66699 17.1877 3.66699H4.81266ZM4.81266 5.04199H17.1877C18.0814 5.04199 18.7918 5.75238 18.7918 6.64616V7.15283L11.0002 11.3647L3.2085 7.15283V6.64616C3.2085 5.75238 3.91888 5.04199 4.81266 5.04199ZM3.2085 8.71582L10.6734 12.7513C10.7738 12.8055 10.8861 12.8339 11.0002 12.8339C11.1142 12.8339 11.2265 12.8055 11.3269 12.7513L18.7918 8.71582V15.3545C18.7918 16.2483 18.0814 16.9587 17.1877 16.9587H4.81266C3.91888 16.9587 3.2085 16.2483 3.2085 15.3545V8.71582Z" fill="#4BA2F2"/>
</svg>
