<svg width="22" height="22" viewBox="0 0 22 22" fill="none" xmlns="http://www.w3.org/2000/svg">
<path d="M11.0002 1.83301C5.94569 1.83301 1.8335 5.94521 1.8335 10.9997C1.8335 16.0541 5.94569 20.1663 11.0002 20.1663C16.0546 20.1663 20.1668 16.0541 20.1668 10.9997C20.1668 5.94521 16.0546 1.83301 11.0002 1.83301ZM11.0002 3.20801C15.3115 3.20801 18.7918 6.68831 18.7918 10.9997C18.7918 15.311 15.3115 18.7913 11.0002 18.7913C6.6888 18.7913 3.2085 15.311 3.2085 10.9997C3.2085 6.68831 6.6888 3.20801 11.0002 3.20801ZM10.7603 5.48983C10.5781 5.49267 10.4045 5.56771 10.2776 5.69847C10.1507 5.82922 10.0809 6.00499 10.0835 6.18717V11.6872C10.0835 11.8695 10.156 12.0444 10.2849 12.1733C10.4138 12.3022 10.5887 12.3747 10.771 12.3747H14.4377C14.5288 12.376 14.6192 12.3591 14.7038 12.3252C14.7883 12.2912 14.8652 12.2408 14.9301 12.1768C14.995 12.1128 15.0465 12.0366 15.0817 11.9525C15.1168 11.8685 15.135 11.7783 15.135 11.6872C15.135 11.5961 15.1168 11.5059 15.0817 11.4218C15.0465 11.3378 14.995 11.2615 14.9301 11.1976C14.8652 11.1336 14.7883 11.0832 14.7038 11.0492C14.6192 11.0152 14.5288 10.9984 14.4377 10.9997H11.4585V6.18717C11.4598 6.09516 11.4427 6.00381 11.408 5.91855C11.3734 5.83329 11.322 5.75585 11.2569 5.69082C11.1918 5.62578 11.1142 5.57449 11.0289 5.53996C10.9436 5.50544 10.8523 5.48839 10.7603 5.48983Z" fill="#4BA2F2"/>
</svg>
