<svg width="30" height="30" viewBox="0 0 30 30" fill="none" xmlns="http://www.w3.org/2000/svg">
<path d="M16.2317 1.2416C15.9882 1.2487 15.7571 1.35026 15.5872 1.5248L13.1677 3.94424C13.1011 3.99506 13.0415 4.05459 12.9907 4.12124L12.7747 4.3373C12.5989 4.51312 12.5002 4.75155 12.5002 5.00014C12.5002 5.24874 12.5989 5.48716 12.7747 5.66299L15.5872 8.47549C15.6735 8.56546 15.777 8.63729 15.8915 8.68677C16.006 8.73626 16.1292 8.7624 16.2539 8.76367C16.3787 8.76494 16.5024 8.7413 16.6179 8.69416C16.7333 8.64701 16.8383 8.5773 16.9265 8.4891C17.0147 8.4009 17.0844 8.29599 17.1315 8.18052C17.1787 8.06504 17.2023 7.94132 17.201 7.81659C17.1998 7.69187 17.1736 7.56865 17.1241 7.45415C17.0746 7.33966 17.0028 7.23619 16.9128 7.1498L15.4089 5.6459C20.4057 5.86051 24.375 9.94919 24.375 15.0001C24.375 18.1726 22.802 20.9591 20.3967 22.6576C20.2961 22.7286 20.2105 22.8188 20.1447 22.9229C20.0789 23.027 20.0343 23.143 20.0134 23.2644C19.9925 23.3857 19.9957 23.51 20.0228 23.6301C20.0499 23.7502 20.1004 23.8638 20.1714 23.9644C20.2424 24.065 20.3326 24.1507 20.4367 24.2164C20.5408 24.2822 20.6569 24.3268 20.7782 24.3477C20.8996 24.3686 21.0238 24.3654 21.144 24.3383C21.2641 24.3112 21.3777 24.2606 21.4783 24.1896C24.3605 22.1543 26.25 18.7939 26.25 15.0001C26.25 9.12332 21.7162 4.29073 15.9644 3.79897L16.9128 2.85049C17.0481 2.71876 17.1404 2.54928 17.1778 2.36421C17.2151 2.17915 17.1957 1.98712 17.1221 1.81327C17.0485 1.63941 16.9241 1.49183 16.7652 1.38983C16.6064 1.28783 16.4204 1.23616 16.2317 1.2416ZM9.11133 5.63247C8.90033 5.62378 8.69258 5.68658 8.52173 5.81069C5.63951 7.84596 3.75 11.2064 3.75 15.0001C3.75 20.877 8.28378 25.7096 14.0356 26.2013L13.0872 27.1498C12.9972 27.2362 12.9254 27.3397 12.8759 27.4542C12.8264 27.5687 12.8002 27.6919 12.799 27.8166C12.7977 27.9413 12.8213 28.065 12.8685 28.1805C12.9156 28.296 12.9853 28.4009 13.0735 28.4891C13.1617 28.5773 13.2667 28.647 13.3821 28.6942C13.4976 28.7413 13.6213 28.7649 13.7461 28.7637C13.8708 28.7624 13.994 28.7363 14.1085 28.6868C14.223 28.6373 14.3265 28.5655 14.4128 28.4755L16.8323 26.0561C16.8989 26.0052 16.9585 25.9457 17.0093 25.8791L17.2253 25.663C17.4011 25.4872 17.4998 25.2487 17.4998 25.0001C17.4998 24.7515 17.4011 24.5131 17.2253 24.3373L14.4128 21.5248C14.3255 21.4348 14.2209 21.3633 14.1054 21.3144C13.9898 21.2656 13.8657 21.2404 13.7402 21.2404C13.5537 21.2404 13.3713 21.2961 13.2166 21.4004C13.0619 21.5046 12.9417 21.6527 12.8716 21.8256C12.8015 21.9985 12.7845 22.1883 12.8229 22.3709C12.8613 22.5535 12.9533 22.7205 13.0872 22.8505L14.5911 24.3544C9.59425 24.1398 5.625 20.0511 5.625 15.0001C5.625 11.8277 7.19799 9.04116 9.60327 7.34267C9.76572 7.23133 9.88899 7.07167 9.95559 6.88632C10.0222 6.70098 10.0287 6.49937 9.97427 6.3101C9.91983 6.12083 9.80717 5.95351 9.65227 5.83187C9.49738 5.71024 9.30811 5.64047 9.11133 5.63247Z" fill="white"/>
</svg>
