<svg width="98" height="170" viewBox="0 0 98 170" fill="none" xmlns="http://www.w3.org/2000/svg">
<path d="M43.5343 169.499C44.0863 169.481 44.5184 169.018 44.4995 168.466L44.1915 159.471C44.1726 158.919 43.7098 158.487 43.1578 158.506C42.6059 158.525 42.1737 158.988 42.1926 159.54L42.4664 167.535L34.4711 167.809C33.9192 167.828 33.487 168.29 33.5059 168.842C33.5248 169.394 33.9876 169.826 34.5396 169.807L43.5343 169.499ZM97.3137 0C47.5597 0 14.783 24.4534 4.08664 58.0088C-6.59747 91.5259 4.85825 133.785 42.8176 169.231L44.1826 167.769C6.64207 132.715 -4.40213 91.2241 5.99217 58.6162C16.3743 26.0466 48.2542 2 97.3137 2V0Z" fill="url(#paint0_linear_48_341)"/>
<defs>
<linearGradient id="paint0_linear_48_341" x1="36.5002" y1="169" x2="97.0003" y2="1" gradientUnits="userSpaceOnUse">
<stop stop-color="#4B4F5A"/>
<stop offset="1" stop-color="#4B4F5A" stop-opacity="0"/>
</linearGradient>
</defs>
</svg>
