<svg width="22" height="12" viewBox="0 0 22 12" fill="none" xmlns="http://www.w3.org/2000/svg">
<path d="M15.8052 0.492676C15.6684 0.492709 15.5347 0.533563 15.4212 0.610009C15.3077 0.686456 15.2196 0.79502 15.1682 0.921809C15.1168 1.0486 15.1044 1.18785 15.1325 1.32174C15.1607 1.45564 15.2281 1.57808 15.3263 1.67342L18.736 5.08317H1.60403C1.51293 5.08188 1.42248 5.09871 1.33794 5.13268C1.2534 5.16666 1.17645 5.21709 1.11157 5.28106C1.04669 5.34503 0.995175 5.42125 0.960011 5.5053C0.924847 5.58936 0.906738 5.67956 0.906738 5.77067C0.906738 5.86178 0.924847 5.95198 0.960011 6.03604C0.995175 6.12009 1.04669 6.19631 1.11157 6.26028C1.17645 6.32425 1.2534 6.37468 1.33794 6.40866C1.42248 6.44263 1.51293 6.45946 1.60403 6.45817H18.736L15.3263 9.86792C15.2603 9.93127 15.2076 10.0071 15.1713 10.0911C15.135 10.1751 15.1159 10.2654 15.1149 10.3569C15.114 10.4484 15.1313 10.5391 15.1659 10.6238C15.2005 10.7085 15.2516 10.7854 15.3163 10.8501C15.381 10.9148 15.4579 10.9659 15.5426 11.0004C15.6273 11.035 15.718 11.0523 15.8095 11.0514C15.9009 11.0505 15.9913 11.0313 16.0753 10.995C16.1592 10.9587 16.2351 10.9061 16.2984 10.8401L20.8818 6.25675C21.0107 6.12782 21.0831 5.95298 21.0831 5.77067C21.0831 5.58836 21.0107 5.41352 20.8818 5.28459L16.2984 0.701253C16.2344 0.63526 16.1577 0.582796 16.073 0.546968C15.9882 0.511141 15.8972 0.492679 15.8052 0.492676Z" fill="#343C4B"/>
</svg>
