<svg width="100" height="100" viewBox="0 0 100 100" fill="none" xmlns="http://www.w3.org/2000/svg">
<rect width="100" height="100" rx="50" fill="white"/>
<path d="M43.2002 40.6001C42.9703 40.6001 42.7499 40.6914 42.5873 40.8539C42.4248 41.0165 42.3335 41.2369 42.3335 41.4668C42.3335 41.4679 42.3335 41.469 42.3335 41.4701V51.0001V60.53C42.3335 60.5312 42.3335 60.5323 42.3335 60.5334C42.3335 60.7633 42.4248 60.9837 42.5873 61.1463C42.7499 61.3088 42.9703 61.4001 43.2002 61.4001C43.3806 61.3996 43.5563 61.3428 43.7029 61.2376L43.7046 61.2393L60.894 51.7872C61.0449 51.7182 61.1727 51.6074 61.2625 51.4678C61.3522 51.3283 61.4 51.166 61.4002 51.0001C61.4002 50.8296 61.35 50.6628 61.2558 50.5207C61.1615 50.3786 61.0275 50.2674 60.8703 50.2011L43.7046 40.7609H43.7029C43.5561 40.6563 43.3804 40.6001 43.2002 40.6001Z" fill="#4BA2F2"/>
</svg>
